<svg width="25" height="24" viewBox="0 0 25 24" fill="none" xmlns="http://www.w3.org/2000/svg">
<path d="M12.6449 6.6094C9.66367 6.6094 7.25898 9.01409 7.25898 11.9953C7.25898 14.9766 9.66367 17.3813 12.6449 17.3813C15.6262 17.3813 18.0309 14.9766 18.0309 11.9953C18.0309 9.01409 15.6262 6.6094 12.6449 6.6094ZM12.6449 15.4969C10.7184 15.4969 9.14336 13.9266 9.14336 11.9953C9.14336 10.0641 10.7137 8.49377 12.6449 8.49377C14.5762 8.49377 16.1465 10.0641 16.1465 11.9953C16.1465 13.9266 14.5715 15.4969 12.6449 15.4969ZM19.5074 6.38909C19.5074 7.08752 18.9449 7.64534 18.2512 7.64534C17.5527 7.64534 16.9949 7.08284 16.9949 6.38909C16.9949 5.69534 17.5574 5.13284 18.2512 5.13284C18.9449 5.13284 19.5074 5.69534 19.5074 6.38909ZM23.0746 7.66409C22.9949 5.98127 22.6105 4.49065 21.3777 3.26252C20.1496 2.0344 18.659 1.65002 16.9762 1.56565C15.2418 1.46721 10.0434 1.46721 8.30898 1.56565C6.63086 1.64534 5.14023 2.02971 3.90742 3.25784C2.67461 4.48596 2.29492 5.97659 2.21055 7.6594C2.11211 9.39377 2.11211 14.5922 2.21055 16.3266C2.29023 18.0094 2.67461 19.5 3.90742 20.7281C5.14023 21.9563 6.62617 22.3406 8.30898 22.425C10.0434 22.5235 15.2418 22.5235 16.9762 22.425C18.659 22.3453 20.1496 21.961 21.3777 20.7281C22.6059 19.5 22.9902 18.0094 23.0746 16.3266C23.173 14.5922 23.173 9.39846 23.0746 7.66409ZM20.834 18.1875C20.4684 19.1063 19.7605 19.8141 18.8371 20.1844C17.4543 20.7328 14.173 20.6063 12.6449 20.6063C11.1168 20.6063 7.83086 20.7281 6.45273 20.1844C5.53398 19.8188 4.82617 19.111 4.45586 18.1875C3.90742 16.8047 4.03398 13.5235 4.03398 11.9953C4.03398 10.4672 3.91211 7.18127 4.45586 5.80315C4.82148 4.8844 5.5293 4.17659 6.45273 3.80627C7.83555 3.25784 11.1168 3.3844 12.6449 3.3844C14.173 3.3844 17.459 3.26252 18.8371 3.80627C19.7559 4.1719 20.4637 4.87971 20.834 5.80315C21.3824 7.18596 21.2559 10.4672 21.2559 11.9953C21.2559 13.5235 21.3824 16.8094 20.834 18.1875Z" fill="#020817" fill-opacity="0.7"/>
</svg>
