<svg width="25" height="24" viewBox="0 0 25 24" fill="none" xmlns="http://www.w3.org/2000/svg">
<path d="M16.6401 8C18.2314 8 19.7576 8.63214 20.8828 9.75736C22.008 10.8826 22.6401 12.4087 22.6401 14V21H18.6401V14C18.6401 13.4696 18.4294 12.9609 18.0543 12.5858C17.6793 12.2107 17.1706 12 16.6401 12C16.1097 12 15.601 12.2107 15.2259 12.5858C14.8509 12.9609 14.6401 13.4696 14.6401 14V21H10.6401V14C10.6401 12.4087 11.2723 10.8826 12.3975 9.75736C13.5227 8.63214 15.0488 8 16.6401 8Z" stroke="#020817" stroke-opacity="0.7" stroke-width="2" stroke-linecap="round" stroke-linejoin="round"/>
<path d="M6.64014 9H2.64014V21H6.64014V9Z" stroke="#020817" stroke-opacity="0.7" stroke-width="2" stroke-linecap="round" stroke-linejoin="round"/>
<path d="M4.64014 6C5.74471 6 6.64014 5.10457 6.64014 4C6.64014 2.89543 5.74471 2 4.64014 2C3.53557 2 2.64014 2.89543 2.64014 4C2.64014 5.10457 3.53557 6 4.64014 6Z" stroke="#020817" stroke-opacity="0.7" stroke-width="2" stroke-linecap="round" stroke-linejoin="round"/>
</svg>
