<svg width="45" height="36" viewBox="0 0 45 36" fill="none" xmlns="http://www.w3.org/2000/svg">
<path d="M9.12694 23.1127C10.9732 27.2661 12.3316 31.5784 13.1804 35.9806C14.4126 35.8876 15.6578 35.8101 16.9117 35.7559C16.0433 31.0874 14.6293 26.5123 12.6928 22.1053C10.4698 16.8916 7.52412 11.9454 3.92401 7.38134C2.89358 7.94705 1.83558 8.49726 0.75 9.03197C4.19112 13.3963 7.00528 18.1266 9.12694 23.1127ZM20.4166 35.6474H24.222C23.445 30.3345 21.9283 25.1282 19.707 20.1485C16.9205 13.7669 13.433 8.21828 9.7452 3.99483C8.77863 4.61866 7.77287 5.23087 6.73228 5.8392C10.0456 9.6403 13.3764 14.8285 16.1411 21.1327C18.2209 25.7992 19.6566 30.673 20.4166 35.6474ZM27.6572 35.752C28.9634 35.8101 30.2217 35.8838 31.4756 35.9806C31.0881 30.6296 29.4597 24.4223 26.7211 18.1569C23.5123 10.8066 19.3804 4.55667 15.0787 0.182112C14.208 0.874395 13.2835 1.56668 12.3053 2.25896C16.0714 6.16855 20.003 11.9458 23.1553 19.1566C25.711 25.019 27.2436 30.7769 27.6572 35.752Z" fill="#1A1624"/>
<path d="M17.2252 35.7404C17.6388 30.7691 19.1671 25.0152 21.7272 19.1566C24.9273 11.8295 28.9242 5.98256 32.7426 2.0846C31.7673 1.3949 30.853 0.697449 29.9866 0C25.6196 4.38231 21.4137 10.702 18.1657 18.153C15.4271 24.4107 13.8118 30.6103 13.4068 35.9613C14.6753 35.8683 15.9481 35.7946 17.2252 35.7404ZM20.6518 35.6474H24.4614C25.2216 30.6706 26.6573 25.7941 28.737 21.125C31.5278 14.7317 34.9283 9.50081 38.2851 5.65321C37.2533 5.04488 36.2475 4.4288 35.2853 3.80497C31.5409 8.05166 27.9968 13.6623 25.1711 20.1485C22.95 25.1285 21.4319 30.3346 20.6518 35.6474ZM27.9663 35.7675C29.229 35.8243 30.4728 35.9018 31.6977 36C32.5442 31.591 33.9026 27.2721 35.7511 23.1127C37.8985 18.07 40.7541 13.2894 44.25 8.88473C43.1659 8.34614 42.1122 7.79981 41.0803 7.24185C37.424 11.8433 34.4353 16.8373 32.1853 22.1053C30.2467 26.5157 28.8327 31.0948 27.9663 35.7675Z" fill="#706EEC"/>
</svg>
