<svg width="17" height="16" viewBox="0 0 17 16" fill="none" xmlns="http://www.w3.org/2000/svg">
<path fill-rule="evenodd" clip-rule="evenodd" d="M14.5927 0.109461C14.7894 0.0125391 15.0047 -0.0208885 15.2162 0.0126568C15.4277 0.0462021 15.6277 0.145494 15.7953 0.300199C15.9629 0.454903 16.092 0.659364 16.1692 0.8923C16.2464 1.12524 16.2688 1.37813 16.2342 1.62466L14.4287 14.4443C14.2535 15.6808 13.0945 16.39 12.1257 15.774C11.3153 15.2587 10.1116 14.4648 9.02895 13.6363C8.48763 13.2217 6.82942 11.8938 7.03321 10.9488C7.20834 10.1409 9.99458 7.10493 11.5867 5.29992C12.2116 4.59077 11.9266 4.18169 11.1887 4.83399C9.35614 6.45356 6.41387 8.91646 5.44107 9.60977C4.58291 10.2211 4.13552 10.3254 3.60056 10.2211C2.62458 10.031 1.71945 9.7365 0.980701 9.37774C-0.0175681 8.89317 0.030992 7.28664 0.979905 6.81885L14.5927 0.109461Z" fill="white"/>
</svg>
